<svg xmlns="http://www.w3.org/2000/svg" version="1.1" xmlns:xlink="http://www.w3.org/1999/xlink" xmlns:svgjs="http://svgjs.com/svgjs" width="1400" height="1400"><svg xmlns="http://www.w3.org/2000/svg" xmlns:xlink="http://www.w3.org/1999/xlink" width="1400" zoomAndPan="magnify" viewBox="0 0 1050 1049.999947" height="1400" preserveAspectRatio="xMidYMid meet" version="1.0"><defs><clipPath id="SvgjsClipPath1004"><path d="M 187.1875 187.1875 L 862.8125 187.1875 L 862.8125 277.269531 L 187.1875 277.269531 Z M 187.1875 187.1875 " clip-rule="nonzero"></path></clipPath><clipPath id="SvgjsClipPath1003"><path d="M 187.1875 333.570312 L 525 333.570312 L 525 423.65625 L 187.1875 423.65625 Z M 187.1875 333.570312 " clip-rule="nonzero"></path></clipPath><clipPath id="SvgjsClipPath1002"><path d="M 187.1875 479.957031 L 862.8125 479.957031 L 862.8125 570.042969 L 187.1875 570.042969 Z M 187.1875 479.957031 " clip-rule="nonzero"></path></clipPath><clipPath id="SvgjsClipPath1001"><path d="M 525 626.34375 L 862.8125 626.34375 L 862.8125 716.425781 L 525 716.425781 Z M 525 626.34375 " clip-rule="nonzero"></path></clipPath><clipPath id="SvgjsClipPath1000"><path d="M 187.1875 772.730469 L 862.8125 772.730469 L 862.8125 862.8125 L 187.1875 862.8125 Z M 187.1875 772.730469 " clip-rule="nonzero"></path></clipPath></defs><rect x="-105" width="1260" fill="#ffffff" y="-104.999995" height="1259.999936" fill-opacity="1"></rect><rect x="-105" width="1260" fill="#ffffff" y="-104.999995" height="1259.999936" fill-opacity="1"></rect><g clip-path="url(#d805cda9a2)"><path fill="#2255cc" d="M 187.1875 187.1875 L 862.8125 187.1875 L 862.8125 277.269531 L 187.1875 277.269531 Z M 187.1875 187.1875 " fill-opacity="1" fill-rule="nonzero"></path></g><g clip-path="url(#93e8219e5d)"><path fill="#737373" d="M 187.1875 333.570312 L 525 333.570312 L 525 423.65625 L 187.1875 423.65625 Z M 187.1875 333.570312 " fill-opacity="1" fill-rule="nonzero"></path></g><g clip-path="url(#6aa74d6240)"><path fill="#2255cc" d="M 187.1875 479.957031 L 862.8125 479.957031 L 862.8125 570.042969 L 187.1875 570.042969 Z M 187.1875 479.957031 " fill-opacity="1" fill-rule="nonzero"></path></g><g clip-path="url(#67d3fbc041)"><path fill="#2255cc" d="M 525 626.34375 L 862.8125 626.34375 L 862.8125 716.425781 L 525 716.425781 Z M 525 626.34375 " fill-opacity="1" fill-rule="nonzero"></path></g><g clip-path="url(#dcd9dc3033)"><path fill="#2255cc" d="M 187.1875 772.730469 L 862.8125 772.730469 L 862.8125 862.8125 L 187.1875 862.8125 Z M 187.1875 772.730469 " fill-opacity="1" fill-rule="nonzero"></path></g></svg><style>@media (prefers-color-scheme: light) { :root { filter: none; } }
</style></svg>